<svg width="16" height="18" viewBox="0 0 16 18" fill="none" xmlns="http://www.w3.org/2000/svg">
<g opacity="0.6">
<path d="M15 4.18419C12.41 3.92018 9.80444 3.78418 7.20667 3.78418C5.66667 3.78418 4.12667 3.86418 2.58667 4.02418L1 4.18419" stroke="black" stroke-width="1.5" stroke-linecap="round" stroke-linejoin="round"/>
<path d="M5.27832 3.37604L5.44943 2.32802C5.57388 1.56801 5.66721 1 6.98165 1H9.01943C10.3339 1 10.435 1.60001 10.5517 2.33602L10.7228 3.37604" stroke="black" stroke-width="1.5" stroke-linecap="round" stroke-linejoin="round"/>
<path d="M13.3274 6.71191L12.8219 14.7681C12.7363 16.0241 12.6663 17.0001 10.4963 17.0001H5.50299C3.33299 17.0001 3.26299 16.0241 3.17743 14.7681L2.67188 6.71191" stroke="black" stroke-width="1.5" stroke-linecap="round" stroke-linejoin="round"/>
<path d="M6.70117 12.6006H9.29117" stroke="black" stroke-width="1.5" stroke-linecap="round" stroke-linejoin="round"/>
<path d="M6.05566 9.40039H9.94455" stroke="black" stroke-width="1.5" stroke-linecap="round" stroke-linejoin="round"/>
</g>
</svg>
